<svg xmlns="http://www.w3.org/2000/svg" xmlns:xlink="http://www.w3.org/1999/xlink" width="1920" zoomAndPan="magnify" viewBox="0 0 1440 959.999988" height="1280" preserveAspectRatio="xMidYMid meet" version="1.0"><defs><g/><clipPath id="b38b125bc3"><path d="M 1167 307 L 1351 307 L 1351 641 L 1167 641 Z M 1167 307 " clip-rule="nonzero"/></clipPath><clipPath id="6893defe7a"><path d="M 1153.289062 318.433594 L 1340.238281 304.058594 L 1365.136719 627.851562 L 1178.191406 642.226562 Z M 1153.289062 318.433594 " clip-rule="nonzero"/></clipPath><clipPath id="b00d8f66c0"><path d="M 1153.289062 318.433594 L 1340.238281 304.058594 L 1365.136719 627.851562 L 1178.191406 642.226562 Z M 1153.289062 318.433594 " clip-rule="nonzero"/></clipPath><clipPath id="2a4275e919"><path d="M 1197.765625 640.261719 C 1196.46875 640.355469 1195.195312 640.238281 1193.9375 639.910156 C 1192.683594 639.578125 1191.511719 639.058594 1190.429688 638.339844 C 1189.839844 637.96875 1189.285156 637.550781 1188.773438 637.078125 C 1188.257812 636.609375 1187.789062 636.09375 1187.371094 635.539062 C 1186.949219 634.984375 1186.582031 634.394531 1186.265625 633.773438 C 1185.949219 633.152344 1185.695312 632.503906 1185.496094 631.835938 C 1185.296875 631.167969 1185.160156 630.488281 1185.085938 629.792969 C 1185.011719 629.101562 1184.996094 628.40625 1185.046875 627.710938 C 1185.097656 627.015625 1185.210938 626.332031 1185.386719 625.65625 C 1185.558594 624.980469 1185.792969 624.328125 1186.085938 623.695312 L 1186.132812 623.59375 L 1246.699219 494.050781 L 1179.847656 499.191406 C 1178.695312 499.277344 1177.558594 499.195312 1176.429688 498.945312 C 1175.300781 498.695312 1174.234375 498.289062 1173.226562 497.726562 C 1172.21875 497.164062 1171.3125 496.464844 1170.507812 495.636719 C 1169.707031 494.804688 1169.039062 493.878906 1168.511719 492.851562 C 1167.980469 491.824219 1167.613281 490.742188 1167.402344 489.609375 C 1167.191406 488.472656 1167.148438 487.332031 1167.273438 486.183594 C 1167.398438 485.035156 1167.683594 483.929688 1168.136719 482.867188 C 1168.585938 481.800781 1169.183594 480.828125 1169.921875 479.9375 L 1300.28125 312.019531 L 1300.46875 311.785156 C 1300.910156 311.269531 1301.394531 310.796875 1301.921875 310.363281 C 1302.445312 309.933594 1303.003906 309.546875 1303.597656 309.214844 C 1304.1875 308.878906 1304.804688 308.597656 1305.445312 308.367188 C 1306.085938 308.140625 1306.742188 307.96875 1307.410156 307.855469 C 1308.082031 307.738281 1308.757812 307.683594 1309.4375 307.6875 C 1310.117188 307.6875 1310.792969 307.75 1311.460938 307.871094 C 1312.132812 307.988281 1312.785156 308.167969 1313.425781 308.398438 C 1314.0625 308.632812 1314.679688 308.917969 1315.269531 309.257812 C 1315.855469 309.597656 1316.414062 309.988281 1316.933594 310.421875 C 1317.457031 310.859375 1317.9375 311.335938 1318.375 311.855469 C 1318.816406 312.375 1319.207031 312.929688 1319.550781 313.515625 C 1319.894531 314.101562 1320.183594 314.714844 1320.417969 315.351562 C 1320.65625 315.992188 1320.835938 316.644531 1320.960938 317.3125 C 1321.085938 317.980469 1321.148438 318.65625 1321.15625 319.335938 C 1321.164062 320.015625 1321.109375 320.691406 1321 321.363281 C 1320.890625 322.035156 1320.722656 322.691406 1320.496094 323.332031 L 1320.425781 323.519531 L 1273.953125 443.601562 L 1332.777344 439.078125 C 1333.582031 439.015625 1334.390625 439.015625 1335.195312 439.070312 C 1336.003906 439.128906 1336.800781 439.242188 1337.589844 439.417969 C 1338.378906 439.589844 1339.152344 439.820312 1339.910156 440.109375 C 1340.664062 440.394531 1341.394531 440.734375 1342.101562 441.128906 C 1342.808594 441.523438 1343.480469 441.964844 1344.121094 442.457031 C 1344.761719 442.949219 1345.363281 443.488281 1345.929688 444.066406 C 1346.492188 444.648438 1347.007812 445.265625 1347.480469 445.921875 C 1347.953125 446.578125 1348.375 447.265625 1348.746094 447.984375 C 1349.117188 448.699219 1349.433594 449.441406 1349.699219 450.207031 C 1349.960938 450.972656 1350.167969 451.75 1350.316406 452.546875 C 1350.464844 453.339844 1350.554688 454.140625 1350.585938 454.949219 C 1350.617188 455.757812 1350.589844 456.5625 1350.503906 457.367188 C 1350.417969 458.167969 1350.273438 458.964844 1350.070312 459.746094 C 1349.867188 460.527344 1349.609375 461.292969 1349.296875 462.035156 C 1348.980469 462.78125 1348.613281 463.5 1348.195312 464.191406 C 1347.777344 464.882812 1347.308594 465.539062 1346.792969 466.160156 L 1205.726562 636.117188 L 1205.5625 636.304688 C 1204.570312 637.445312 1203.398438 638.355469 1202.046875 639.039062 C 1200.699219 639.726562 1199.273438 640.132812 1197.765625 640.261719 Z M 1196.527344 628.269531 Z M 1179.722656 487.035156 L 1246.378906 481.910156 C 1246.886719 481.871094 1247.390625 481.863281 1247.898438 481.890625 C 1248.402344 481.917969 1248.90625 481.976562 1249.402344 482.070312 C 1249.902344 482.160156 1250.394531 482.285156 1250.875 482.4375 C 1251.359375 482.59375 1251.828125 482.78125 1252.289062 482.996094 C 1252.746094 483.210938 1253.1875 483.457031 1253.617188 483.730469 C 1254.042969 484.003906 1254.449219 484.300781 1254.839844 484.628906 C 1255.226562 484.953125 1255.59375 485.304688 1255.933594 485.675781 C 1256.277344 486.050781 1256.597656 486.441406 1256.886719 486.855469 C 1257.179688 487.269531 1257.445312 487.703125 1257.679688 488.152344 C 1257.917969 488.597656 1258.125 489.0625 1258.300781 489.535156 C 1258.476562 490.011719 1258.625 490.496094 1258.738281 490.988281 C 1258.851562 491.484375 1258.933594 491.980469 1258.984375 492.488281 C 1259.03125 492.992188 1259.050781 493.496094 1259.035156 494.003906 C 1259.019531 494.511719 1258.96875 495.011719 1258.890625 495.511719 C 1258.808594 496.015625 1258.695312 496.507812 1258.550781 496.992188 C 1258.40625 497.480469 1258.230469 497.953125 1258.027344 498.417969 L 1257.976562 498.519531 L 1198.332031 626.097656 L 1337.453125 458.429688 C 1337.734375 458.09375 1337.960938 457.726562 1338.128906 457.324219 C 1338.300781 456.921875 1338.410156 456.503906 1338.457031 456.070312 C 1338.503906 455.636719 1338.488281 455.203125 1338.40625 454.773438 C 1338.328125 454.34375 1338.1875 453.9375 1337.984375 453.546875 C 1337.785156 453.160156 1337.53125 452.808594 1337.226562 452.496094 C 1336.921875 452.183594 1336.582031 451.917969 1336.199219 451.707031 C 1335.816406 451.492188 1335.414062 451.339844 1334.984375 451.25 C 1334.558594 451.15625 1334.128906 451.125 1333.691406 451.160156 L 1274.316406 455.726562 C 1273.828125 455.761719 1273.34375 455.769531 1272.855469 455.746094 C 1272.371094 455.722656 1271.886719 455.671875 1271.40625 455.589844 C 1270.929688 455.503906 1270.457031 455.394531 1269.988281 455.25 C 1269.523438 455.109375 1269.070312 454.941406 1268.625 454.742188 C 1268.179688 454.542969 1267.75 454.320312 1267.332031 454.066406 C 1266.914062 453.816406 1266.515625 453.539062 1266.132812 453.238281 C 1265.75 452.9375 1265.386719 452.613281 1265.046875 452.265625 C 1264.703125 451.917969 1264.382812 451.554688 1264.085938 451.167969 C 1263.789062 450.78125 1263.519531 450.378906 1263.269531 449.960938 C 1263.023438 449.539062 1262.804688 449.105469 1262.613281 448.660156 C 1262.417969 448.210938 1262.253906 447.753906 1262.117188 447.289062 C 1261.980469 446.820312 1261.875 446.34375 1261.796875 445.863281 C 1261.71875 445.382812 1261.671875 444.902344 1261.65625 444.414062 C 1261.636719 443.925781 1261.652344 443.441406 1261.695312 442.957031 C 1261.738281 442.472656 1261.808594 441.992188 1261.914062 441.515625 C 1262.015625 441.039062 1262.148438 440.570312 1262.308594 440.113281 L 1262.378906 439.921875 L 1308.191406 321.597656 Z M 1314.78125 321.328125 Z M 1314.78125 321.328125 " clip-rule="nonzero"/></clipPath><linearGradient x1="107.218924" gradientTransform="matrix(0.699875, -0.0538186, 0.0538186, 0.699875, 1066.114986, 308.116166)" y1="256.01001" x2="404.163122" gradientUnits="userSpaceOnUse" y2="256.01001" id="13f31f3aee"><stop stop-opacity="1" stop-color="rgb(100%, 80.799866%, 0.39978%)" offset="0"/><stop stop-opacity="1" stop-color="rgb(99.961853%, 80.819702%, 0.582886%)" offset="0.0625"/><stop stop-opacity="1" stop-color="rgb(99.876404%, 80.867004%, 0.993347%)" offset="0.0664062"/><stop stop-opacity="1" stop-color="rgb(99.830627%, 80.892944%, 1.220703%)" offset="0.0703125"/><stop stop-opacity="1" stop-color="rgb(99.783325%, 80.918884%, 1.448059%)" offset="0.0742187"/><stop stop-opacity="1" stop-color="rgb(99.737549%, 80.944824%, 1.675415%)" offset="0.078125"/><stop stop-opacity="1" stop-color="rgb(99.690247%, 80.970764%, 1.902771%)" offset="0.0820312"/><stop stop-opacity="1" stop-color="rgb(99.64447%, 80.996704%, 2.130127%)" offset="0.0859375"/><stop stop-opacity="1" stop-color="rgb(99.597168%, 81.022644%, 2.357483%)" offset="0.0898437"/><stop stop-opacity="1" stop-color="rgb(99.551392%, 81.048584%, 2.584839%)" offset="0.09375"/><stop stop-opacity="1" stop-color="rgb(99.504089%, 81.074524%, 2.812195%)" offset="0.0976562"/><stop stop-opacity="1" stop-color="rgb(99.458313%, 81.100464%, 3.039551%)" offset="0.101562"/><stop stop-opacity="1" stop-color="rgb(99.411011%, 81.126404%, 3.266907%)" offset="0.105469"/><stop stop-opacity="1" stop-color="rgb(99.365234%, 81.152344%, 3.494263%)" offset="0.109375"/><stop stop-opacity="1" stop-color="rgb(99.317932%, 81.178284%, 3.721619%)" offset="0.113281"/><stop stop-opacity="1" stop-color="rgb(99.272156%, 81.204224%, 3.948975%)" offset="0.117187"/><stop stop-opacity="1" stop-color="rgb(99.224854%, 81.230164%, 4.176331%)" offset="0.121094"/><stop stop-opacity="1" stop-color="rgb(99.179077%, 81.256104%, 4.403687%)" offset="0.125"/><stop stop-opacity="1" stop-color="rgb(99.131775%, 81.280518%, 4.631042%)" offset="0.128906"/><stop stop-opacity="1" stop-color="rgb(99.085999%, 81.306458%, 4.858398%)" offset="0.132812"/><stop stop-opacity="1" stop-color="rgb(99.038696%, 81.332397%, 5.085754%)" offset="0.136719"/><stop stop-opacity="1" stop-color="rgb(98.99292%, 81.358337%, 5.31311%)" offset="0.140625"/><stop stop-opacity="1" stop-color="rgb(98.945618%, 81.384277%, 5.540466%)" offset="0.144531"/><stop stop-opacity="1" stop-color="rgb(98.899841%, 81.410217%, 5.767822%)" offset="0.148437"/><stop stop-opacity="1" stop-color="rgb(98.852539%, 81.436157%, 5.995178%)" offset="0.152344"/><stop stop-opacity="1" stop-color="rgb(98.806763%, 81.462097%, 6.22406%)" offset="0.15625"/><stop stop-opacity="1" stop-color="rgb(98.75946%, 81.488037%, 6.451416%)" offset="0.160156"/><stop stop-opacity="1" stop-color="rgb(98.713684%, 81.513977%, 6.678772%)" offset="0.164062"/><stop stop-opacity="1" stop-color="rgb(98.666382%, 81.539917%, 6.906128%)" offset="0.167969"/><stop stop-opacity="1" stop-color="rgb(98.620605%, 81.565857%, 7.133484%)" offset="0.171875"/><stop stop-opacity="1" stop-color="rgb(98.573303%, 81.591797%, 7.36084%)" offset="0.175781"/><stop stop-opacity="1" stop-color="rgb(98.527527%, 81.617737%, 7.588196%)" offset="0.179687"/><stop stop-opacity="1" stop-color="rgb(98.480225%, 81.643677%, 7.815552%)" offset="0.183594"/><stop stop-opacity="1" stop-color="rgb(98.434448%, 81.669617%, 8.042908%)" offset="0.1875"/><stop stop-opacity="1" stop-color="rgb(98.387146%, 81.695557%, 8.270264%)" offset="0.191406"/><stop stop-opacity="1" stop-color="rgb(98.34137%, 81.721497%, 8.49762%)" offset="0.195312"/><stop stop-opacity="1" stop-color="rgb(98.294067%, 81.747437%, 8.724976%)" offset="0.199219"/><stop stop-opacity="1" stop-color="rgb(98.248291%, 81.773376%, 8.952332%)" offset="0.203125"/><stop stop-opacity="1" stop-color="rgb(98.200989%, 81.799316%, 9.179688%)" offset="0.207031"/><stop stop-opacity="1" stop-color="rgb(98.155212%, 81.825256%, 9.407043%)" offset="0.210937"/><stop stop-opacity="1" stop-color="rgb(98.10791%, 81.851196%, 9.634399%)" offset="0.214844"/><stop stop-opacity="1" stop-color="rgb(98.062134%, 81.877136%, 9.861755%)" offset="0.21875"/><stop stop-opacity="1" stop-color="rgb(98.014832%, 81.903076%, 10.089111%)" offset="0.222656"/><stop stop-opacity="1" stop-color="rgb(97.969055%, 81.929016%, 10.316467%)" offset="0.226562"/><stop stop-opacity="1" stop-color="rgb(97.921753%, 81.954956%, 10.543823%)" offset="0.230469"/><stop stop-opacity="1" stop-color="rgb(97.875977%, 81.980896%, 10.771179%)" offset="0.234375"/><stop stop-opacity="1" stop-color="rgb(97.828674%, 82.006836%, 10.998535%)" offset="0.238281"/><stop stop-opacity="1" stop-color="rgb(97.782898%, 82.032776%, 11.225891%)" offset="0.242187"/><stop stop-opacity="1" stop-color="rgb(97.735596%, 82.058716%, 11.453247%)" offset="0.246094"/><stop stop-opacity="1" stop-color="rgb(97.689819%, 82.084656%, 11.680603%)" offset="0.25"/><stop stop-opacity="1" stop-color="rgb(97.642517%, 82.110596%, 11.907959%)" offset="0.253906"/><stop stop-opacity="1" stop-color="rgb(97.596741%, 82.136536%, 12.136841%)" offset="0.257812"/><stop stop-opacity="1" stop-color="rgb(97.549438%, 82.162476%, 12.364197%)" offset="0.261719"/><stop stop-opacity="1" stop-color="rgb(97.503662%, 82.188416%, 12.591553%)" offset="0.265625"/><stop stop-opacity="1" stop-color="rgb(97.45636%, 82.214355%, 12.818909%)" offset="0.269531"/><stop stop-opacity="1" stop-color="rgb(97.410583%, 82.240295%, 13.046265%)" offset="0.273438"/><stop stop-opacity="1" stop-color="rgb(97.363281%, 82.266235%, 13.273621%)" offset="0.277344"/><stop stop-opacity="1" stop-color="rgb(97.317505%, 82.292175%, 13.500977%)" offset="0.28125"/><stop stop-opacity="1" stop-color="rgb(97.271729%, 82.316589%, 13.728333%)" offset="0.285156"/><stop stop-opacity="1" stop-color="rgb(97.225952%, 82.342529%, 13.955688%)" offset="0.289062"/><stop stop-opacity="1" stop-color="rgb(97.17865%, 82.368469%, 14.183044%)" offset="0.292969"/><stop stop-opacity="1" stop-color="rgb(97.132874%, 82.394409%, 14.4104%)" offset="0.296875"/><stop stop-opacity="1" stop-color="rgb(97.085571%, 82.420349%, 14.637756%)" offset="0.300781"/><stop stop-opacity="1" stop-color="rgb(97.039795%, 82.446289%, 14.865112%)" offset="0.304688"/><stop stop-opacity="1" stop-color="rgb(96.992493%, 82.472229%, 15.092468%)" offset="0.308594"/><stop stop-opacity="1" stop-color="rgb(96.946716%, 82.498169%, 15.319824%)" offset="0.3125"/><stop stop-opacity="1" stop-color="rgb(96.899414%, 82.524109%, 15.54718%)" offset="0.316406"/><stop stop-opacity="1" stop-color="rgb(96.853638%, 82.550049%, 15.774536%)" offset="0.320312"/><stop stop-opacity="1" stop-color="rgb(96.806335%, 82.575989%, 16.001892%)" offset="0.324219"/><stop stop-opacity="1" stop-color="rgb(96.760559%, 82.601929%, 16.229248%)" offset="0.328125"/><stop stop-opacity="1" stop-color="rgb(96.713257%, 82.627869%, 16.456604%)" offset="0.332031"/><stop stop-opacity="1" stop-color="rgb(96.66748%, 82.653809%, 16.68396%)" offset="0.335937"/><stop stop-opacity="1" stop-color="rgb(96.620178%, 82.679749%, 16.911316%)" offset="0.339844"/><stop stop-opacity="1" stop-color="rgb(96.574402%, 82.705688%, 17.138672%)" offset="0.34375"/><stop stop-opacity="1" stop-color="rgb(96.5271%, 82.731628%, 17.366028%)" offset="0.347656"/><stop stop-opacity="1" stop-color="rgb(96.481323%, 82.757568%, 17.593384%)" offset="0.351562"/><stop stop-opacity="1" stop-color="rgb(96.434021%, 82.783508%, 17.82074%)" offset="0.355469"/><stop stop-opacity="1" stop-color="rgb(96.388245%, 82.809448%, 18.048096%)" offset="0.359375"/><stop stop-opacity="1" stop-color="rgb(96.340942%, 82.835388%, 18.275452%)" offset="0.363281"/><stop stop-opacity="1" stop-color="rgb(96.295166%, 82.861328%, 18.504333%)" offset="0.367187"/><stop stop-opacity="1" stop-color="rgb(96.247864%, 82.887268%, 18.731689%)" offset="0.371094"/><stop stop-opacity="1" stop-color="rgb(96.202087%, 82.913208%, 18.959045%)" offset="0.375"/><stop stop-opacity="1" stop-color="rgb(96.154785%, 82.939148%, 19.186401%)" offset="0.378906"/><stop stop-opacity="1" stop-color="rgb(96.109009%, 82.965088%, 19.413757%)" offset="0.382812"/><stop stop-opacity="1" stop-color="rgb(96.061707%, 82.991028%, 19.641113%)" offset="0.386719"/><stop stop-opacity="1" stop-color="rgb(96.01593%, 83.016968%, 19.868469%)" offset="0.390625"/><stop stop-opacity="1" stop-color="rgb(95.968628%, 83.042908%, 20.095825%)" offset="0.394531"/><stop stop-opacity="1" stop-color="rgb(95.922852%, 83.068848%, 20.323181%)" offset="0.398438"/><stop stop-opacity="1" stop-color="rgb(95.875549%, 83.094788%, 20.550537%)" offset="0.402344"/><stop stop-opacity="1" stop-color="rgb(95.829773%, 83.120728%, 20.777893%)" offset="0.40625"/><stop stop-opacity="1" stop-color="rgb(95.782471%, 83.146667%, 21.005249%)" offset="0.410156"/><stop stop-opacity="1" stop-color="rgb(95.736694%, 83.172607%, 21.232605%)" offset="0.414062"/><stop stop-opacity="1" stop-color="rgb(95.689392%, 83.198547%, 21.459961%)" offset="0.417969"/><stop stop-opacity="1" stop-color="rgb(95.643616%, 83.224487%, 21.687317%)" offset="0.421875"/><stop stop-opacity="1" stop-color="rgb(95.596313%, 83.250427%, 21.914673%)" offset="0.425781"/><stop stop-opacity="1" stop-color="rgb(95.550537%, 83.276367%, 22.142029%)" offset="0.429688"/><stop stop-opacity="1" stop-color="rgb(95.503235%, 83.302307%, 22.369385%)" offset="0.433594"/><stop stop-opacity="1" stop-color="rgb(95.457458%, 83.328247%, 22.596741%)" offset="0.4375"/><stop stop-opacity="1" stop-color="rgb(95.410156%, 83.354187%, 22.824097%)" offset="0.441406"/><stop stop-opacity="1" stop-color="rgb(95.36438%, 83.380127%, 23.051453%)" offset="0.445312"/><stop stop-opacity="1" stop-color="rgb(95.317078%, 83.404541%, 23.278809%)" offset="0.449219"/><stop stop-opacity="1" stop-color="rgb(95.271301%, 83.430481%, 23.506165%)" offset="0.453125"/><stop stop-opacity="1" stop-color="rgb(95.223999%, 83.456421%, 23.733521%)" offset="0.457031"/><stop stop-opacity="1" stop-color="rgb(95.178223%, 83.482361%, 23.960876%)" offset="0.460937"/><stop stop-opacity="1" stop-color="rgb(95.13092%, 83.508301%, 24.188232%)" offset="0.464844"/><stop stop-opacity="1" stop-color="rgb(95.085144%, 83.534241%, 24.417114%)" offset="0.46875"/><stop stop-opacity="1" stop-color="rgb(95.037842%, 83.560181%, 24.64447%)" offset="0.472656"/><stop stop-opacity="1" stop-color="rgb(94.992065%, 83.586121%, 24.871826%)" offset="0.476562"/><stop stop-opacity="1" stop-color="rgb(94.944763%, 83.612061%, 25.099182%)" offset="0.480469"/><stop stop-opacity="1" stop-color="rgb(94.898987%, 83.638%, 25.326538%)" offset="0.484375"/><stop stop-opacity="1" stop-color="rgb(94.851685%, 83.66394%, 25.553894%)" offset="0.488281"/><stop stop-opacity="1" stop-color="rgb(94.805908%, 83.68988%, 25.78125%)" offset="0.492187"/><stop stop-opacity="1" stop-color="rgb(94.758606%, 83.71582%, 26.008606%)" offset="0.496094"/><stop stop-opacity="1" stop-color="rgb(94.71283%, 83.74176%, 26.235962%)" offset="0.5"/><stop stop-opacity="1" stop-color="rgb(94.665527%, 83.7677%, 26.463318%)" offset="0.503906"/><stop stop-opacity="1" stop-color="rgb(94.619751%, 83.79364%, 26.690674%)" offset="0.507812"/><stop stop-opacity="1" stop-color="rgb(94.572449%, 83.81958%, 26.91803%)" offset="0.511719"/><stop stop-opacity="1" stop-color="rgb(94.526672%, 83.84552%, 27.145386%)" offset="0.515625"/><stop stop-opacity="1" stop-color="rgb(94.47937%, 83.87146%, 27.372742%)" offset="0.519531"/><stop stop-opacity="1" stop-color="rgb(94.433594%, 83.8974%, 27.600098%)" offset="0.523437"/><stop stop-opacity="1" stop-color="rgb(94.386292%, 83.92334%, 27.827454%)" offset="0.527344"/><stop stop-opacity="1" stop-color="rgb(94.340515%, 83.94928%, 28.05481%)" offset="0.53125"/><stop stop-opacity="1" stop-color="rgb(94.293213%, 83.97522%, 28.282166%)" offset="0.535156"/><stop stop-opacity="1" stop-color="rgb(94.247437%, 84.00116%, 28.509521%)" offset="0.539062"/><stop stop-opacity="1" stop-color="rgb(94.200134%, 84.0271%, 28.736877%)" offset="0.542969"/><stop stop-opacity="1" stop-color="rgb(94.154358%, 84.05304%, 28.964233%)" offset="0.546875"/><stop stop-opacity="1" stop-color="rgb(94.107056%, 84.078979%, 29.191589%)" offset="0.550781"/><stop stop-opacity="1" stop-color="rgb(94.061279%, 84.104919%, 29.418945%)" offset="0.554688"/><stop stop-opacity="1" stop-color="rgb(94.013977%, 84.130859%, 29.646301%)" offset="0.558594"/><stop stop-opacity="1" stop-color="rgb(93.968201%, 84.156799%, 29.873657%)" offset="0.5625"/><stop stop-opacity="1" stop-color="rgb(93.920898%, 84.182739%, 30.101013%)" offset="0.566406"/><stop stop-opacity="1" stop-color="rgb(93.875122%, 84.208679%, 30.329895%)" offset="0.570312"/><stop stop-opacity="1" stop-color="rgb(93.82782%, 84.234619%, 30.557251%)" offset="0.574219"/><stop stop-opacity="1" stop-color="rgb(93.782043%, 84.260559%, 30.784607%)" offset="0.578125"/><stop stop-opacity="1" stop-color="rgb(93.734741%, 84.286499%, 31.011963%)" offset="0.582031"/><stop stop-opacity="1" stop-color="rgb(93.688965%, 84.312439%, 31.239319%)" offset="0.585938"/><stop stop-opacity="1" stop-color="rgb(93.641663%, 84.338379%, 31.466675%)" offset="0.589844"/><stop stop-opacity="1" stop-color="rgb(93.595886%, 84.364319%, 31.694031%)" offset="0.59375"/><stop stop-opacity="1" stop-color="rgb(93.548584%, 84.390259%, 31.921387%)" offset="0.597656"/><stop stop-opacity="1" stop-color="rgb(93.502808%, 84.416199%, 32.148743%)" offset="0.601562"/><stop stop-opacity="1" stop-color="rgb(93.455505%, 84.440613%, 32.376099%)" offset="0.605469"/><stop stop-opacity="1" stop-color="rgb(93.409729%, 84.466553%, 32.603455%)" offset="0.609375"/><stop stop-opacity="1" stop-color="rgb(93.362427%, 84.492493%, 32.830811%)" offset="0.613281"/><stop stop-opacity="1" stop-color="rgb(93.31665%, 84.518433%, 33.058167%)" offset="0.617187"/><stop stop-opacity="1" stop-color="rgb(93.269348%, 84.544373%, 33.285522%)" offset="0.621094"/><stop stop-opacity="1" stop-color="rgb(93.223572%, 84.570312%, 33.512878%)" offset="0.625"/><stop stop-opacity="1" stop-color="rgb(93.17627%, 84.596252%, 33.740234%)" offset="0.628906"/><stop stop-opacity="1" stop-color="rgb(93.130493%, 84.622192%, 33.96759%)" offset="0.632812"/><stop stop-opacity="1" stop-color="rgb(93.083191%, 84.648132%, 34.194946%)" offset="0.636719"/><stop stop-opacity="1" stop-color="rgb(93.037415%, 84.674072%, 34.422302%)" offset="0.640625"/><stop stop-opacity="1" stop-color="rgb(92.990112%, 84.700012%, 34.649658%)" offset="0.644531"/><stop stop-opacity="1" stop-color="rgb(92.944336%, 84.725952%, 34.877014%)" offset="0.648437"/><stop stop-opacity="1" stop-color="rgb(92.897034%, 84.751892%, 35.10437%)" offset="0.652344"/><stop stop-opacity="1" stop-color="rgb(92.851257%, 84.777832%, 35.331726%)" offset="0.65625"/><stop stop-opacity="1" stop-color="rgb(92.803955%, 84.803772%, 35.559082%)" offset="0.660156"/><stop stop-opacity="1" stop-color="rgb(92.758179%, 84.829712%, 35.786438%)" offset="0.664062"/><stop stop-opacity="1" stop-color="rgb(92.710876%, 84.855652%, 36.013794%)" offset="0.667969"/><stop stop-opacity="1" stop-color="rgb(92.6651%, 84.881592%, 36.24115%)" offset="0.671875"/><stop stop-opacity="1" stop-color="rgb(92.617798%, 84.907532%, 36.468506%)" offset="0.675781"/><stop stop-opacity="1" stop-color="rgb(92.572021%, 84.933472%, 36.697388%)" offset="0.679687"/><stop stop-opacity="1" stop-color="rgb(92.524719%, 84.959412%, 36.924744%)" offset="0.683594"/><stop stop-opacity="1" stop-color="rgb(92.478943%, 84.985352%, 37.1521%)" offset="0.6875"/><stop stop-opacity="1" stop-color="rgb(92.431641%, 85.011292%, 37.379456%)" offset="0.691406"/><stop stop-opacity="1" stop-color="rgb(92.385864%, 85.037231%, 37.606812%)" offset="0.695312"/><stop stop-opacity="1" stop-color="rgb(92.338562%, 85.063171%, 37.834167%)" offset="0.699219"/><stop stop-opacity="1" stop-color="rgb(92.292786%, 85.089111%, 38.061523%)" offset="0.703125"/><stop stop-opacity="1" stop-color="rgb(92.245483%, 85.115051%, 38.288879%)" offset="0.707031"/><stop stop-opacity="1" stop-color="rgb(92.199707%, 85.140991%, 38.516235%)" offset="0.710938"/><stop stop-opacity="1" stop-color="rgb(92.152405%, 85.166931%, 38.743591%)" offset="0.714844"/><stop stop-opacity="1" stop-color="rgb(92.106628%, 85.192871%, 38.970947%)" offset="0.71875"/><stop stop-opacity="1" stop-color="rgb(92.059326%, 85.218811%, 39.198303%)" offset="0.722656"/><stop stop-opacity="1" stop-color="rgb(92.01355%, 85.244751%, 39.425659%)" offset="0.726562"/><stop stop-opacity="1" stop-color="rgb(91.966248%, 85.270691%, 39.653015%)" offset="0.730469"/><stop stop-opacity="1" stop-color="rgb(91.920471%, 85.296631%, 39.880371%)" offset="0.734375"/><stop stop-opacity="1" stop-color="rgb(91.873169%, 85.322571%, 40.107727%)" offset="0.738281"/><stop stop-opacity="1" stop-color="rgb(91.827393%, 85.348511%, 40.335083%)" offset="0.742187"/><stop stop-opacity="1" stop-color="rgb(91.78009%, 85.374451%, 40.562439%)" offset="0.746094"/><stop stop-opacity="1" stop-color="rgb(91.734314%, 85.400391%, 40.789795%)" offset="0.75"/><stop stop-opacity="1" stop-color="rgb(91.687012%, 85.426331%, 41.017151%)" offset="0.753906"/><stop stop-opacity="1" stop-color="rgb(91.641235%, 85.452271%, 41.244507%)" offset="0.757812"/><stop stop-opacity="1" stop-color="rgb(91.593933%, 85.476685%, 41.471863%)" offset="0.761719"/><stop stop-opacity="1" stop-color="rgb(91.548157%, 85.502625%, 41.699219%)" offset="0.765625"/><stop stop-opacity="1" stop-color="rgb(91.500854%, 85.528564%, 41.926575%)" offset="0.769531"/><stop stop-opacity="1" stop-color="rgb(91.455078%, 85.554504%, 42.153931%)" offset="0.773437"/><stop stop-opacity="1" stop-color="rgb(91.407776%, 85.580444%, 42.381287%)" offset="0.777344"/><stop stop-opacity="1" stop-color="rgb(91.362%, 85.606384%, 42.610168%)" offset="0.78125"/><stop stop-opacity="1" stop-color="rgb(91.314697%, 85.632324%, 42.837524%)" offset="0.785156"/><stop stop-opacity="1" stop-color="rgb(91.268921%, 85.658264%, 43.06488%)" offset="0.789062"/><stop stop-opacity="1" stop-color="rgb(91.221619%, 85.684204%, 43.292236%)" offset="0.792969"/><stop stop-opacity="1" stop-color="rgb(91.175842%, 85.710144%, 43.519592%)" offset="0.796875"/><stop stop-opacity="1" stop-color="rgb(91.12854%, 85.736084%, 43.746948%)" offset="0.800781"/><stop stop-opacity="1" stop-color="rgb(91.082764%, 85.762024%, 43.974304%)" offset="0.804687"/><stop stop-opacity="1" stop-color="rgb(91.035461%, 85.787964%, 44.20166%)" offset="0.808594"/><stop stop-opacity="1" stop-color="rgb(90.989685%, 85.813904%, 44.429016%)" offset="0.8125"/><stop stop-opacity="1" stop-color="rgb(90.942383%, 85.839844%, 44.656372%)" offset="0.816406"/><stop stop-opacity="1" stop-color="rgb(90.896606%, 85.865784%, 44.883728%)" offset="0.820312"/><stop stop-opacity="1" stop-color="rgb(90.849304%, 85.891724%, 45.111084%)" offset="0.824219"/><stop stop-opacity="1" stop-color="rgb(90.803528%, 85.917664%, 45.33844%)" offset="0.828125"/><stop stop-opacity="1" stop-color="rgb(90.756226%, 85.943604%, 45.565796%)" offset="0.832031"/><stop stop-opacity="1" stop-color="rgb(90.710449%, 85.969543%, 45.793152%)" offset="0.835937"/><stop stop-opacity="1" stop-color="rgb(90.663147%, 85.995483%, 46.020508%)" offset="0.839844"/><stop stop-opacity="1" stop-color="rgb(90.617371%, 86.021423%, 46.247864%)" offset="0.84375"/><stop stop-opacity="1" stop-color="rgb(90.570068%, 86.047363%, 46.47522%)" offset="0.847656"/><stop stop-opacity="1" stop-color="rgb(90.524292%, 86.073303%, 46.702576%)" offset="0.851562"/><stop stop-opacity="1" stop-color="rgb(90.47699%, 86.099243%, 46.929932%)" offset="0.855469"/><stop stop-opacity="1" stop-color="rgb(90.431213%, 86.125183%, 47.157288%)" offset="0.859375"/><stop stop-opacity="1" stop-color="rgb(90.383911%, 86.151123%, 47.384644%)" offset="0.863281"/><stop stop-opacity="1" stop-color="rgb(90.338135%, 86.177063%, 47.612%)" offset="0.867187"/><stop stop-opacity="1" stop-color="rgb(90.290833%, 86.203003%, 47.839355%)" offset="0.871094"/><stop stop-opacity="1" stop-color="rgb(90.245056%, 86.228943%, 48.066711%)" offset="0.875"/><stop stop-opacity="1" stop-color="rgb(90.197754%, 86.254883%, 48.294067%)" offset="0.878906"/><stop stop-opacity="1" stop-color="rgb(90.151978%, 86.280823%, 48.522949%)" offset="0.882812"/><stop stop-opacity="1" stop-color="rgb(90.104675%, 86.306763%, 48.750305%)" offset="0.886719"/><stop stop-opacity="1" stop-color="rgb(90.058899%, 86.332703%, 48.977661%)" offset="0.890625"/><stop stop-opacity="1" stop-color="rgb(90.011597%, 86.358643%, 49.205017%)" offset="0.894531"/><stop stop-opacity="1" stop-color="rgb(89.96582%, 86.384583%, 49.432373%)" offset="0.898437"/><stop stop-opacity="1" stop-color="rgb(89.918518%, 86.410522%, 49.659729%)" offset="0.902344"/><stop stop-opacity="1" stop-color="rgb(89.872742%, 86.436462%, 49.887085%)" offset="0.90625"/><stop stop-opacity="1" stop-color="rgb(89.825439%, 86.462402%, 50.114441%)" offset="0.910156"/><stop stop-opacity="1" stop-color="rgb(89.779663%, 86.488342%, 50.341797%)" offset="0.914062"/><stop stop-opacity="1" stop-color="rgb(89.732361%, 86.512756%, 50.569153%)" offset="0.917969"/><stop stop-opacity="1" stop-color="rgb(89.686584%, 86.538696%, 50.796509%)" offset="0.921875"/><stop stop-opacity="1" stop-color="rgb(89.639282%, 86.564636%, 51.023865%)" offset="0.925781"/><stop stop-opacity="1" stop-color="rgb(89.593506%, 86.590576%, 51.251221%)" offset="0.929688"/><stop stop-opacity="1" stop-color="rgb(89.546204%, 86.616516%, 51.478577%)" offset="0.933594"/><stop stop-opacity="1" stop-color="rgb(89.500427%, 86.642456%, 51.705933%)" offset="0.9375"/><stop stop-opacity="1" stop-color="rgb(89.453125%, 86.668396%, 51.933289%)" offset="0.941406"/><stop stop-opacity="1" stop-color="rgb(89.407349%, 86.694336%, 52.160645%)" offset="0.945312"/><stop stop-opacity="1" stop-color="rgb(89.402771%, 86.695862%, 52.178955%)" offset="0.953125"/><stop stop-opacity="1" stop-color="rgb(89.399719%, 86.698914%, 52.198792%)" offset="0.96875"/><stop stop-opacity="1" stop-color="rgb(89.399719%, 86.698914%, 52.198792%)" offset="1"/></linearGradient></defs><g fill="#c3ff44" fill-opacity="1"><g transform="translate(96.000003, 567.912956)"><g><path d="M 195.734375 -155.4375 L 121.796875 -81.203125 L 203 0 L 133.921875 0 L 71.8125 -62.109375 L 71.8125 0 L 18.171875 0 L 18.171875 -260.5625 L 71.8125 -260.5625 L 71.8125 -101.203125 L 126.046875 -155.4375 Z M 195.734375 -155.4375 "/></g></g></g><g fill="#c3ff44" fill-opacity="1"><g transform="translate(276.580073, 567.912956)"><g><path d="M 209.96875 0 L 169.96875 -140.28125 L 129.984375 0 L 66.65625 0 L -4.546875 -249.96875 L 58.78125 -249.96875 L 101.5 -78.46875 L 103.015625 -78.46875 L 148.46875 -249.96875 L 191.484375 -249.96875 L 236.9375 -78.46875 L 238.453125 -78.46875 L 281.171875 -249.96875 L 344.1875 -249.96875 L 272.984375 0 Z M 209.96875 0 "/></g></g></g><g fill="#c3ff44" fill-opacity="1"><g transform="translate(601.078948, 567.912956)"><g><path d="M 28.78125 -19.234375 C 14.238281 -35.097656 6.96875 -54.539062 6.96875 -77.5625 C 6.96875 -100.59375 14.238281 -120.082031 28.78125 -136.03125 C 43.320312 -151.988281 61.804688 -159.96875 84.234375 -159.96875 C 104.835938 -159.96875 121.800781 -153.503906 135.125 -140.578125 L 135.125 -155.4375 L 188.765625 -155.4375 L 188.765625 0 L 135.734375 0 L 135.734375 -17.578125 L 135.125 -17.578125 C 121.800781 -2.828125 104.835938 4.546875 84.234375 4.546875 C 61.804688 4.546875 43.320312 -3.378906 28.78125 -19.234375 Z M 74.375 -103.921875 C 67.414062 -97.054688 63.9375 -88.269531 63.9375 -77.5625 C 63.9375 -66.851562 67.265625 -58.113281 73.921875 -51.34375 C 80.585938 -44.582031 89.375 -41.203125 100.28125 -41.203125 C 110.789062 -41.203125 119.425781 -44.632812 126.1875 -51.5 C 132.957031 -58.375 136.34375 -67.0625 136.34375 -77.5625 C 136.34375 -88.269531 132.859375 -97.054688 125.890625 -103.921875 C 118.921875 -110.785156 110.382812 -114.21875 100.28125 -114.21875 C 89.976562 -114.21875 81.34375 -110.785156 74.375 -103.921875 Z M 74.375 -103.921875 "/></g></g></g><g fill="#c3ff44" fill-opacity="1"><g transform="translate(792.869538, 567.912956)"><g><path d="M 27.265625 -155.4375 L 27.265625 -213.296875 L 80.890625 -213.296875 L 80.890625 -155.4375 L 113.625 -155.4375 L 113.625 -114.53125 L 80.890625 -114.53125 L 80.890625 -65.140625 C 80.890625 -50.796875 84.929688 -43.625 93.015625 -43.625 C 95.035156 -43.625 97.15625 -44.023438 99.375 -44.828125 C 101.601562 -45.640625 103.320312 -46.453125 104.53125 -47.265625 L 106.34375 -48.484375 L 119.671875 -5.15625 C 108.160156 1.3125 95.035156 4.546875 80.296875 4.546875 C 70.191406 4.546875 61.503906 2.78125 54.234375 -0.75 C 46.960938 -4.289062 41.457031 -9.039062 37.71875 -15 C 33.976562 -20.957031 31.300781 -27.21875 29.6875 -33.78125 C 28.070312 -40.34375 27.265625 -47.363281 27.265625 -54.84375 L 27.265625 -114.53125 L 4.84375 -114.53125 L 4.84375 -155.4375 Z M 27.265625 -155.4375 "/></g></g></g><g fill="#c3ff44" fill-opacity="1"><g transform="translate(897.399837, 567.912956)"><g><path d="M 27.265625 -155.4375 L 27.265625 -213.296875 L 80.890625 -213.296875 L 80.890625 -155.4375 L 113.625 -155.4375 L 113.625 -114.53125 L 80.890625 -114.53125 L 80.890625 -65.140625 C 80.890625 -50.796875 84.929688 -43.625 93.015625 -43.625 C 95.035156 -43.625 97.15625 -44.023438 99.375 -44.828125 C 101.601562 -45.640625 103.320312 -46.453125 104.53125 -47.265625 L 106.34375 -48.484375 L 119.671875 -5.15625 C 108.160156 1.3125 95.035156 4.546875 80.296875 4.546875 C 70.191406 4.546875 61.503906 2.78125 54.234375 -0.75 C 46.960938 -4.289062 41.457031 -9.039062 37.71875 -15 C 33.976562 -20.957031 31.300781 -27.21875 29.6875 -33.78125 C 28.070312 -40.34375 27.265625 -47.363281 27.265625 -54.84375 L 27.265625 -114.53125 L 4.84375 -114.53125 L 4.84375 -155.4375 Z M 27.265625 -155.4375 "/></g></g></g><g fill="#c3ff44" fill-opacity="1"><g transform="translate(1001.930137, 567.912956)"><g><path d="M 168.453125 -155.4375 L 91.5 -40.90625 L 162.40625 -40.90625 L 162.40625 0 L 1.515625 0 L 78.46875 -114.53125 L 14.234375 -114.53125 L 14.234375 -155.4375 Z M 168.453125 -155.4375 "/></g></g></g><g clip-path="url(#b38b125bc3)"><g clip-path="url(#6893defe7a)"><g clip-path="url(#b00d8f66c0)"><g clip-path="url(#2a4275e919)"><path fill="url(#13f31f3aee)" d="M 1141.714844 309.640625 L 1168.226562 654.382812 L 1376.050781 638.398438 L 1349.539062 293.660156 Z M 1141.714844 309.640625 " fill-rule="nonzero"/></g></g></g></g></svg>